<svg xmlns="http://www.w3.org/2000/svg" version="1.1" xmlns:xlink="http://www.w3.org/1999/xlink" xmlns:svgjs="http://svgjs.com/svgjs" width="30.376" height="34.217"><svg xmlns="http://www.w3.org/2000/svg" width="30.376" height="34.217" viewBox="0 0 30.376 34.217"><g transform="translate(-64 25.218)"><g transform="translate(60.694 -26.603)"><path d="M32.3,8.923,19.881,1.757a2.774,2.774,0,0,0-2.774,0L4.693,8.923a2.774,2.774,0,0,0-1.387,2.4V15.72a.925.925,0,0,0,1.849,0V11.864l5.234,3.019a2.353,2.353,0,0,0,0,.254v5.909l-5.7-3.273a.925.925,0,0,0-1.387.8V25.66a2.774,2.774,0,0,0,1.387,2.4l12.414,7.166a2.774,2.774,0,0,0,2.774,0L32.3,28.065a2.774,2.774,0,0,0,1.387-2.4V11.328a2.774,2.774,0,0,0-1.387-2.4ZM10.371,29.207,5.618,26.46a.925.925,0,0,1-.462-.8V20.172l5.215,3.01ZM18.032,3.361a.925.925,0,0,1,.925,0L23.709,6.1l-5.215,3.01L13.279,6.1Zm-6.718,9.917L6.08,10.26l5.349-3.088,5.215,3-5.118,2.964Zm6.256-1.493v6.186L12.22,21.051V15.137a.462.462,0,0,1,.231-.4Zm0,21.573L12.22,30.275V24.264L17.338,27.2a1.54,1.54,0,0,0,.231.116Zm.694-7.754-5.114-2.95,5.345-3.084,5.345,3.084L18.725,25.6A.462.462,0,0,1,18.263,25.6Zm6.505,4.67-5.349,3.084V27.32a1.54,1.54,0,0,0,.231-.116l5.118-2.954Zm0-9.247-5.349-3.056V11.785l5.118,2.954a.462.462,0,0,1,.231.4Zm.694-7.915-5.118-2.941,5.215-3.01,5.349,3.088-5.234,3.028ZM31.833,25.66a.925.925,0,0,1-.462.8l-4.753,2.746V23.2L30.432,21a.926.926,0,0,0-.925-1.6l-2.89,1.669V15.137a2.353,2.353,0,0,0,0-.254l5.234-3.019Z"></path></g></g></svg><style>@media (prefers-color-scheme: light) { :root { filter: none; } }
@media (prefers-color-scheme: dark) { :root { filter: contrast(0.8333333333333334) brightness(1.7); } }
</style></svg>