<?xml version="1.0" standalone="no"?>
<!DOCTYPE svg PUBLIC "-//W3C//DTD SVG 20010904//EN"
 "http://www.w3.org/TR/2001/REC-SVG-20010904/DTD/svg10.dtd">
<svg version="1.0" xmlns="http://www.w3.org/2000/svg"
 width="1088.000000pt" height="1088.000000pt" viewBox="0 0 1088.000000 1088.000000"
 preserveAspectRatio="xMidYMid meet">
<metadata>
Created by potrace 1.14, written by Peter Selinger 2001-2017
</metadata>
<g transform="translate(0.000000,1088.000000) scale(0.100000,-0.100000)"
fill="#000000" stroke="none">
<path d="M5305 10870 c-22 -5 -51 -11 -65 -13 -78 -15 -196 -67 -328 -146 -29
-17 -57 -31 -62 -31 -6 0 -10 -4 -10 -10 0 -5 -6 -10 -14 -10 -8 0 -22 -7 -30
-16 -9 -8 -16 -12 -16 -8 0 4 -8 0 -17 -8 -16 -13 -77 -49 -214 -126 -20 -11
-47 -26 -60 -34 -13 -7 -26 -15 -29 -18 -3 -3 -14 -10 -25 -16 -29 -16 -107
-60 -209 -118 -48 -28 -111 -64 -140 -80 -28 -15 -54 -33 -58 -40 -4 -6 -8 -7
-8 -3 0 4 -17 -4 -37 -18 -21 -14 -43 -25 -50 -25 -7 0 -13 -4 -13 -10 0 -5
-11 -12 -25 -16 -14 -3 -25 -10 -25 -14 0 -4 -8 -10 -17 -13 -10 -3 -45 -22
-78 -41 -33 -20 -80 -47 -105 -61 -25 -14 -52 -30 -60 -35 -25 -16 -622 -360
-626 -360 -2 0 -27 -15 -56 -32 -30 -18 -67 -41 -83 -50 -83 -47 -198 -113
-265 -154 -41 -24 -87 -49 -102 -55 -16 -6 -28 -15 -28 -20 0 -5 -4 -9 -9 -9
-9 0 -209 -112 -251 -140 -8 -6 -28 -17 -45 -26 -16 -8 -43 -23 -60 -34 -16
-11 -37 -23 -45 -27 -8 -3 -31 -16 -50 -28 -19 -12 -55 -33 -80 -47 -122 -68
-294 -169 -308 -180 -6 -6 -12 -7 -12 -2 0 5 -4 4 -8 -2 -4 -6 -32 -24 -63
-41 -31 -17 -102 -58 -158 -92 -56 -34 -105 -61 -108 -61 -4 0 -23 -11 -42
-23 -20 -13 -79 -49 -131 -80 -52 -30 -106 -64 -120 -74 -50 -36 -191 -187
-196 -210 -4 -12 -9 -23 -13 -23 -14 0 -86 -157 -108 -235 -31 -113 -32 -142
-32 -915 l0 -775 25 -52 c51 -105 138 -164 257 -173 37 -3 67 -2 67 2 0 5 3 7
7 7 5 -1 11 0 16 1 4 1 10 3 15 5 85 23 167 109 189 198 3 12 6 46 7 74 0 29
4 53 7 53 3 0 6 7 6 15 0 8 -3 15 -6 15 -3 0 -5 39 -4 87 2 49 3 95 3 103 0 8
0 24 0 35 1 11 1 27 0 35 0 8 0 24 0 35 1 11 1 25 1 30 -6 85 -5 122 3 133 6
8 6 16 0 20 -11 8 -11 182 0 200 4 7 4 12 -1 12 -10 0 -9 133 1 149 4 6 4 11
-1 11 -4 0 -8 31 -8 70 0 38 4 70 8 70 5 0 5 5 1 12 -10 16 -11 106 -2 121 4
7 19 3 45 -14 21 -13 56 -33 78 -44 22 -11 42 -22 45 -25 3 -3 75 -45 160 -94
85 -49 198 -114 250 -144 52 -30 121 -70 153 -88 33 -19 62 -34 65 -34 3 0 13
-6 21 -14 9 -7 36 -24 61 -37 25 -13 52 -29 60 -35 8 -6 40 -25 70 -41 30 -17
73 -41 96 -54 22 -13 112 -64 198 -114 86 -49 178 -103 204 -118 26 -15 58
-33 72 -40 14 -6 27 -14 30 -17 3 -3 16 -12 29 -21 l24 -15 1 -965 c1 -530 0
-969 -2 -975 -4 -13 -52 5 -52 19 0 4 -4 7 -9 7 -8 0 -202 107 -251 138 -14 9
-27 17 -30 17 -3 0 -16 8 -30 16 -38 25 -141 83 -182 104 -21 11 -38 23 -38
27 0 5 -5 8 -11 8 -6 0 -53 25 -104 55 -52 30 -99 55 -104 55 -6 0 -11 5 -11
10 0 6 -6 10 -14 10 -7 0 -19 7 -26 15 -7 9 -15 13 -18 11 -3 -3 -17 3 -31 13
-14 10 -43 28 -63 40 -21 11 -54 30 -73 41 -95 54 -113 65 -155 88 -25 14 -61
36 -80 49 -19 12 -37 23 -41 23 -3 0 -69 37 -145 81 -76 45 -157 92 -179 104
-71 39 -120 69 -126 78 -3 5 -9 8 -13 7 -4 -1 -26 8 -49 19 -112 54 -258 25
-344 -69 -12 -14 -23 -31 -23 -37 0 -7 -4 -13 -9 -13 -4 0 -16 -24 -25 -53
-15 -48 -16 -157 -13 -1277 3 -1200 3 -1226 23 -1290 29 -92 31 -96 77 -188
23 -45 45 -82 49 -82 4 0 8 -6 8 -14 0 -36 260 -266 301 -266 5 0 9 -4 9 -10
0 -5 5 -10 10 -10 6 0 65 -32 133 -71 67 -40 138 -81 157 -92 95 -53 125 -72
128 -79 2 -4 12 -8 23 -8 10 0 19 -5 19 -11 0 -5 4 -7 10 -4 5 3 10 1 10 -4 0
-6 7 -11 15 -11 8 0 15 -4 15 -10 0 -5 5 -10 10 -10 9 0 269 -147 320 -180 8
-6 22 -13 30 -17 8 -4 17 -9 20 -12 3 -4 28 -17 55 -31 28 -14 52 -27 55 -31
3 -3 30 -19 60 -35 30 -16 57 -31 60 -34 6 -6 173 -103 290 -168 25 -13 50
-28 55 -32 6 -4 30 -19 55 -32 25 -14 101 -58 170 -98 68 -40 139 -81 157 -91
60 -34 97 -55 257 -148 87 -50 163 -91 167 -91 5 0 9 -4 9 -10 0 -5 4 -10 9
-10 7 0 53 -25 119 -65 9 -6 68 -40 130 -75 63 -36 135 -78 160 -93 26 -15 58
-32 72 -38 13 -6 27 -13 30 -17 4 -7 115 -71 225 -132 22 -12 45 -26 50 -30 6
-4 30 -19 55 -32 112 -62 285 -163 290 -168 3 -3 23 -15 45 -26 22 -11 128
-72 235 -134 294 -172 332 -189 476 -220 78 -16 278 -20 329 -6 11 3 39 10 62
16 62 15 187 64 203 80 4 4 40 24 121 65 10 5 19 13 19 17 0 5 9 8 19 8 11 0
21 4 23 8 4 10 216 132 229 132 5 0 9 4 9 9 0 5 8 11 18 14 9 3 40 19 67 35
28 16 124 72 215 124 91 53 216 125 279 162 62 36 116 66 118 66 3 0 17 8 31
19 15 10 47 29 72 43 25 14 61 34 80 45 49 28 228 131 270 155 108 62 126 73
132 83 4 5 8 6 8 1 0 -5 6 -4 13 2 6 5 84 52 172 103 88 50 183 105 210 121
28 16 58 32 68 35 9 3 17 9 17 14 0 5 4 9 8 9 5 0 64 32 133 71 68 40 144 83
169 97 25 14 62 36 82 49 21 12 42 23 48 23 5 0 10 5 10 10 0 6 4 10 9 10 8 0
175 95 561 318 91 53 192 111 225 129 33 19 74 42 90 52 27 17 59 35 126 73
13 7 26 16 29 19 3 3 20 11 38 18 17 8 32 17 32 22 0 5 5 9 11 9 6 0 76 39
156 87 147 88 246 171 322 271 34 43 125 212 116 212 -3 0 -1 9 5 21 6 11 14
30 17 42 33 137 32 106 30 2557 -2 2266 -3 2408 -20 2465 -22 76 -25 82 -78
188 -24 48 -47 87 -51 87 -4 0 -8 6 -8 14 0 13 -130 151 -180 191 -27 22 -145
97 -170 108 -8 4 -33 18 -55 32 -22 14 -49 30 -60 35 -11 6 -33 19 -50 30 -16
11 -37 23 -45 27 -14 6 -287 162 -320 183 -41 25 -126 74 -130 75 -3 0 -16 8
-30 16 -77 48 -291 169 -300 169 -5 0 -10 5 -10 10 0 6 -7 10 -15 10 -8 0 -15
5 -15 10 0 6 -9 10 -20 10 -11 0 -20 3 -20 8 0 4 -10 12 -23 18 -30 15 -76 41
-112 64 -16 10 -54 31 -82 46 -29 15 -53 31 -53 36 0 4 -9 8 -20 8 -11 0 -20
5 -20 10 0 6 -4 10 -9 10 -5 0 -42 19 -83 43 -40 24 -94 55 -119 69 -25 14
-56 32 -70 39 -13 8 -27 19 -31 24 -4 6 -8 6 -8 1 0 -5 -8 -2 -17 6 -10 8 -76
48 -148 88 -71 41 -158 91 -192 111 -33 21 -64 35 -67 32 -3 -4 -6 -2 -6 4 0
5 -19 19 -42 32 -24 12 -59 31 -78 43 -19 11 -76 44 -127 74 -51 30 -97 54
-102 54 -6 0 -11 3 -11 8 0 4 -18 16 -40 26 -22 11 -40 23 -40 28 0 4 -7 8
-15 8 -8 0 -47 21 -87 47 -40 25 -74 45 -76 44 -1 -1 -12 5 -25 13 -61 38
-149 86 -158 86 -5 0 -9 5 -9 10 0 6 -5 10 -11 10 -6 0 -24 9 -40 21 -16 11
-29 17 -29 12 0 -4 -4 -3 -8 2 -8 12 -195 121 -349 206 -24 12 -43 26 -43 31
0 4 -6 8 -12 8 -7 0 -49 22 -93 48 -44 27 -95 55 -112 63 -18 7 -33 17 -33 21
0 5 -7 8 -15 8 -8 0 -15 4 -15 8 0 4 -12 13 -27 19 -29 12 -104 54 -113 63 -3
3 -43 24 -90 46 -80 39 -156 66 -225 79 -50 10 -257 13 -300 5z m231 -598 c27
-10 167 -87 312 -170 144 -84 267 -152 272 -152 6 0 10 -4 10 -10 0 -5 5 -10
10 -10 6 0 27 -11 48 -23 20 -13 57 -35 82 -49 140 -80 246 -141 255 -147 6
-5 35 -22 65 -38 30 -17 96 -54 145 -83 81 -47 141 -81 200 -114 87 -49 155
-91 155 -96 0 -4 -17 -15 -37 -27 -80 -43 -379 -217 -405 -235 -16 -11 -28
-16 -28 -12 0 4 -8 0 -17 -8 -17 -14 -57 -38 -143 -84 -19 -11 -38 -23 -42
-29 -5 -7 -8 -7 -8 0 0 6 -3 6 -8 0 -6 -10 -24 -21 -132 -83 -83 -47 -235
-135 -372 -214 -80 -47 -152 -88 -160 -92 -7 -3 -31 -17 -53 -31 -22 -14 -51
-30 -65 -36 -13 -6 -27 -14 -30 -18 -8 -12 -140 -81 -154 -81 -7 0 -40 17 -72
38 -33 20 -66 38 -74 40 -8 2 -17 7 -20 11 -5 6 -232 139 -350 204 -30 17 -56
34 -58 39 -2 4 -12 8 -23 8 -10 0 -19 4 -19 9 0 5 -10 13 -22 17 -13 4 -25 9
-28 13 -3 3 -14 11 -25 17 -11 6 -96 55 -190 109 -409 236 -478 275 -486 275
-5 0 -9 5 -9 10 0 6 -4 10 -9 10 -9 0 -53 25 -166 93 -16 9 -38 20 -47 23 -10
4 -18 10 -18 15 0 5 -7 9 -15 9 -24 0 -17 16 13 32 15 7 43 24 62 35 19 12 40
23 45 23 6 1 17 7 25 14 21 19 350 206 361 206 5 0 9 4 9 9 0 5 8 11 18 14 21
7 71 37 90 55 7 7 18 10 23 7 5 -4 9 -1 9 5 0 6 5 8 10 5 6 -3 10 -2 10 2 0 5
17 17 38 28 20 11 39 22 42 25 3 3 16 11 30 18 14 6 52 28 85 47 33 20 79 45
103 57 23 12 42 26 42 30 0 4 5 8 11 8 6 0 53 25 104 55 52 30 98 55 104 55 5
0 11 3 13 8 3 8 257 152 298 169 43 17 134 15 186 -5z m-2276 -1272 c14 -10
28 -18 33 -19 4 0 17 -7 30 -14 28 -18 210 -124 262 -154 22 -13 52 -29 68
-35 15 -7 27 -16 27 -20 0 -4 5 -8 11 -8 6 0 63 -31 127 -69 64 -38 133 -78
152 -88 36 -20 676 -389 740 -426 19 -11 47 -27 62 -34 15 -8 30 -19 33 -24 4
-5 10 -7 15 -4 4 3 13 -1 19 -9 10 -12 -31 -40 -207 -136 -15 -8 -43 -25 -62
-37 -19 -11 -51 -30 -70 -41 -19 -11 -75 -43 -125 -72 -49 -29 -110 -64 -135
-78 -25 -13 -49 -28 -55 -32 -5 -5 -37 -23 -70 -41 -33 -18 -62 -35 -65 -38
-3 -4 -24 -15 -47 -26 -24 -11 -43 -23 -43 -27 0 -5 -6 -8 -14 -8 -7 0 -19 -7
-26 -15 -7 -8 -16 -12 -21 -9 -5 3 -9 0 -9 -5 0 -6 -4 -11 -9 -11 -5 0 -31
-13 -58 -29 -54 -32 -150 -88 -433 -252 -107 -62 -198 -117 -201 -122 -13 -19
-58 -9 -104 22 -25 17 -48 31 -50 31 -4 0 -180 101 -245 140 -43 26 -306 176
-315 179 -5 2 -12 7 -15 10 -5 6 -35 24 -100 58 -19 10 -37 20 -40 23 -5 5
-17 12 -89 52 -20 11 -40 24 -46 28 -5 4 -41 24 -80 45 -38 21 -77 44 -86 51
-8 8 -18 14 -22 14 -5 0 -213 118 -247 140 -8 6 -31 18 -50 28 -19 9 -37 20
-40 23 -3 3 -12 9 -20 13 -8 4 -24 12 -35 19 -11 7 -39 23 -62 36 -47 27 -52
36 -26 45 23 7 56 28 65 41 4 6 8 6 8 1 0 -5 8 -2 18 6 9 8 37 26 62 39 25 13
47 26 50 29 3 3 14 10 25 16 102 55 141 78 150 84 6 4 33 20 60 36 28 15 64
35 80 45 17 10 55 32 85 49 30 17 62 35 70 40 45 29 223 130 230 130 5 0 15 6
22 13 7 7 72 46 143 86 72 41 133 79 137 85 4 6 8 7 8 2 0 -4 12 0 28 10 15
10 119 71 231 136 220 126 207 122 271 78z m4488 8 c31 -17 74 -42 94 -55 21
-12 39 -23 42 -23 2 0 45 -25 95 -55 51 -30 96 -55 101 -55 6 0 10 -4 10 -10
0 -6 3 -9 8 -8 4 1 33 -13 65 -32 32 -19 66 -39 75 -45 23 -14 119 -69 162
-93 19 -11 76 -43 125 -72 112 -65 167 -97 258 -149 18 -10 89 -51 157 -91 69
-40 144 -83 167 -95 23 -12 48 -26 55 -32 7 -6 33 -22 58 -35 25 -14 61 -34
80 -45 19 -11 46 -25 58 -32 23 -12 23 -13 5 -30 -10 -9 -25 -20 -33 -24 -8
-4 -31 -17 -50 -28 -19 -12 -53 -31 -75 -42 -22 -12 -42 -24 -45 -27 -11 -12
-170 -100 -180 -100 -5 0 -10 -4 -10 -10 0 -5 -11 -12 -25 -16 -14 -3 -25 -9
-25 -13 0 -3 -19 -15 -43 -26 -23 -11 -44 -23 -47 -26 -3 -4 -27 -18 -55 -33
-52 -28 -57 -31 -142 -83 -30 -18 -56 -33 -58 -33 -3 0 -39 -20 -79 -45 -41
-25 -78 -45 -82 -45 -4 0 -15 -6 -23 -14 -9 -8 -38 -26 -66 -41 -27 -14 -63
-35 -80 -46 -16 -10 -37 -22 -45 -26 -8 -4 -37 -20 -65 -36 -51 -30 -86 -51
-151 -87 -19 -11 -45 -27 -57 -34 -12 -8 -38 -23 -57 -33 -19 -11 -51 -29 -70
-41 -19 -11 -39 -21 -44 -21 -5 1 -12 -5 -16 -12 -6 -8 -22 -3 -59 21 -28 18
-51 37 -51 42 0 4 -7 8 -16 8 -9 0 -28 8 -42 19 -15 10 -47 29 -72 43 -84 47
-125 70 -208 119 -45 27 -87 49 -91 49 -5 0 -11 3 -13 8 -1 4 -28 20 -58 36
-30 16 -58 34 -62 40 -4 6 -8 7 -8 3 0 -5 -13 1 -29 12 -16 12 -34 21 -40 21
-6 0 -11 5 -11 10 0 6 -4 10 -9 10 -4 0 -48 23 -97 51 -49 29 -111 65 -139 81
-27 16 -61 34 -75 41 -14 6 -27 14 -30 17 -3 3 -16 11 -29 18 -66 38 -139 79
-198 114 -21 12 -58 33 -83 47 -25 13 -48 30 -52 35 -5 7 -8 7 -8 1 0 -6 -3
-6 -8 0 -4 6 -18 16 -32 22 -26 13 -79 44 -143 82 -34 21 -45 46 -21 46 5 0
52 26 104 56 52 31 114 67 137 80 23 13 99 57 168 97 69 39 129 72 134 72 5 0
11 4 13 8 2 5 28 22 58 39 30 17 82 46 115 65 33 19 71 41 85 49 14 8 27 16
30 19 3 3 19 12 35 21 121 66 152 83 166 95 8 8 19 14 22 14 4 0 25 11 47 25
22 14 40 22 40 18 0 -5 5 0 11 10 5 9 15 17 20 17 6 0 64 32 129 70 65 39 123
70 129 70 5 0 11 5 13 11 2 5 12 11 21 13 10 1 22 7 25 12 4 5 27 20 52 33 25
13 49 28 55 32 14 14 22 11 83 -23z m-2603 -2410 c-1 -535 -3 -978 -3 -984 -1
-6 -64 -47 -139 -90 -76 -44 -145 -83 -155 -89 -9 -5 -52 -30 -95 -55 -43 -24
-86 -49 -95 -55 -9 -5 -29 -17 -45 -26 -60 -34 -111 -63 -191 -110 -45 -27
-87 -49 -92 -49 -6 0 -10 -5 -10 -10 0 -6 -3 -9 -7 -8 -12 2 -63 -24 -63 -33
0 -4 -10 -11 -23 -16 -12 -4 -100 -53 -195 -108 -206 -119 -183 -106 -312
-180 -58 -33 -114 -65 -125 -72 -11 -7 -27 -15 -35 -19 -8 -4 -27 -16 -42 -26
-16 -11 -28 -16 -28 -13 0 4 -7 -1 -16 -9 -8 -9 -19 -14 -22 -12 -4 2 -7 433
-7 958 1 883 2 955 18 986 16 30 84 82 107 82 5 0 10 4 10 8 0 4 15 15 33 23
40 20 100 52 107 59 8 8 43 28 80 47 19 9 51 27 70 39 68 42 175 102 184 102
5 0 12 4 15 9 6 9 97 63 211 126 30 17 58 34 61 40 3 5 10 9 15 9 17 1 54 21
54 30 0 4 9 8 19 8 11 0 21 4 23 8 2 5 28 22 58 39 30 17 95 53 143 82 49 28
93 51 98 51 5 0 9 4 9 8 0 4 12 13 28 20 15 6 99 54 187 106 88 52 162 95 165
95 3 1 5 -437 5 -971z m703 911 c20 -12 49 -30 63 -40 14 -10 28 -16 31 -13 3
2 11 -2 18 -11 7 -8 19 -15 26 -15 8 0 14 -4 14 -10 0 -5 6 -10 13 -10 6 0 40
-18 75 -40 34 -22 65 -40 67 -40 3 0 33 -17 67 -38 35 -21 70 -41 78 -45 8 -4
38 -21 65 -37 28 -17 59 -35 70 -40 11 -6 34 -19 50 -29 17 -11 50 -31 75 -44
25 -14 68 -38 95 -55 28 -17 78 -46 113 -64 34 -18 62 -36 62 -40 0 -5 4 -8 9
-8 5 0 80 -41 167 -91 88 -50 175 -100 194 -111 115 -66 177 -104 191 -117 44
-43 43 -16 44 -1018 0 -524 -2 -953 -4 -953 -4 0 -113 61 -156 87 -11 7 -37
20 -57 30 -21 10 -38 21 -38 25 0 5 -4 8 -9 8 -9 0 -152 79 -161 89 -3 3 -27
17 -55 31 -27 13 -52 27 -55 30 -3 4 -12 9 -20 13 -8 3 -42 22 -75 42 -33 19
-80 46 -105 60 -25 14 -52 29 -60 35 -51 32 -283 160 -291 160 -5 0 -9 3 -9 8
0 4 -10 12 -23 17 -46 22 -112 60 -115 68 -2 4 -9 7 -16 7 -7 0 -18 6 -25 13
-6 6 -15 12 -19 12 -4 1 -32 15 -62 33 -30 17 -120 69 -200 115 l-145 83 -1
974 c0 536 1 978 3 982 2 4 19 -2 38 -12 19 -11 52 -30 73 -41z m3838 -1934
c-1 -1081 -4 -1965 -8 -1965 -4 0 -4 -10 0 -22 5 -13 7 -34 5 -48 -2 -14 -3
-32 -3 -40 0 -8 0 -53 0 -100 0 -47 0 -89 0 -95 0 -5 1 -38 3 -73 1 -34 -2
-62 -6 -62 -4 0 -3 -8 2 -19 6 -10 8 -21 5 -23 -2 -3 -6 -14 -8 -24 -3 -11
-10 -32 -17 -49 -7 -16 -13 -33 -13 -36 -1 -3 -14 -22 -31 -43 -28 -34 -180
-136 -204 -136 -6 0 -11 -4 -11 -9 0 -5 -8 -12 -17 -15 -10 -3 -27 -12 -38
-19 -11 -7 -58 -34 -105 -61 -47 -27 -114 -66 -150 -87 -36 -21 -83 -48 -104
-59 -21 -12 -136 -78 -255 -147 -119 -69 -274 -160 -346 -201 -71 -41 -143
-83 -160 -92 -147 -85 -190 -108 -195 -105 -3 2 -6 429 -5 949 l0 946 37 25
c21 14 48 30 60 35 13 6 32 16 42 22 69 45 124 76 144 82 12 4 22 12 22 17 0
5 4 9 9 9 11 0 150 78 172 97 8 7 23 13 33 13 9 0 19 6 22 13 3 8 20 20 39 27
19 8 35 18 35 22 0 5 5 6 10 3 6 -3 10 -1 10 4 0 6 4 11 9 11 8 0 112 58 181
100 8 5 64 37 125 72 60 35 130 75 155 89 25 14 63 36 85 49 134 76 188 246
121 384 -65 132 -211 198 -346 155 -38 -12 -112 -50 -120 -61 -3 -4 -17 -12
-30 -17 -14 -6 -32 -15 -40 -21 -53 -35 -222 -130 -230 -130 -6 0 -10 -4 -10
-10 0 -5 -9 -10 -20 -10 -11 0 -20 -3 -20 -8 0 -4 -17 -16 -37 -27 -21 -11
-62 -34 -90 -52 -29 -18 -53 -29 -53 -25 0 4 -4 2 -8 -4 -4 -6 -26 -21 -49
-33 -23 -11 -45 -25 -48 -31 -4 -6 -11 -8 -16 -5 -5 4 -9 1 -9 -4 0 -6 -5 -11
-11 -11 -6 0 -23 -8 -37 -18 -15 -10 -52 -32 -82 -49 l-56 -31 0 983 0 983 91
53 c49 28 126 73 170 98 44 25 89 51 100 58 11 7 27 15 35 19 8 4 43 25 78 46
34 21 67 38 72 38 6 0 10 4 10 8 0 5 16 14 35 22 19 8 35 17 35 22 0 4 5 8 11
8 6 0 37 15 68 34 61 37 106 63 161 92 19 11 37 21 40 24 3 3 22 14 43 25 20
11 37 24 37 29 0 5 3 7 6 3 3 -3 42 16 85 43 43 27 79 46 79 43 0 -3 8 1 18 9
9 9 35 25 57 37 22 12 54 29 70 39 17 10 62 37 102 60 39 23 76 42 82 42 6 0
11 5 11 10 0 6 4 10 9 10 5 0 40 18 77 40 38 22 71 40 75 40 3 0 5 -884 5
-1965z m-4216 -495 c13 -11 27 -20 31 -20 5 0 42 -20 82 -45 41 -25 78 -45 81
-45 4 0 27 -13 51 -30 24 -16 46 -30 50 -30 3 0 24 -12 48 -27 23 -15 44 -28
47 -28 3 0 16 -8 30 -16 14 -9 106 -62 205 -119 99 -56 197 -113 217 -126 21
-13 40 -24 42 -24 3 0 46 -24 96 -54 50 -30 100 -58 110 -61 11 -4 20 -11 20
-16 0 -5 4 -9 10 -9 5 0 44 -20 86 -45 41 -25 78 -45 80 -45 3 0 28 -15 57
-33 29 -18 59 -36 67 -40 8 -4 22 -11 30 -17 44 -28 173 -100 181 -100 5 0 9
-4 9 -10 0 -5 7 -10 15 -10 8 0 15 -7 15 -15 0 -8 -4 -15 -10 -15 -5 0 -80
-40 -166 -90 -85 -49 -160 -90 -165 -90 -5 0 -12 -7 -15 -15 -4 -8 -12 -15
-19 -15 -7 0 -43 -18 -79 -40 -36 -22 -70 -40 -76 -40 -5 0 -10 -4 -10 -10 0
-5 -4 -10 -9 -10 -5 0 -75 -38 -156 -85 -80 -47 -150 -85 -156 -85 -5 0 -9 -4
-9 -10 0 -5 -4 -10 -10 -10 -8 0 -104 -53 -180 -99 -43 -27 -469 -271 -525
-301 -35 -20 -78 -37 -95 -38 -31 -2 -103 24 -150 56 -14 9 -27 17 -30 17 -3
0 -24 13 -47 28 -24 15 -45 27 -48 27 -3 0 -22 11 -43 23 -83 53 -443 257
-452 257 -6 0 -10 5 -10 10 0 6 -6 10 -13 10 -7 0 -23 9 -35 20 -12 12 -22 18
-22 16 0 -3 -33 14 -72 37 -40 24 -80 46 -88 50 -8 4 -28 16 -45 27 -16 11
-37 23 -45 27 -8 4 -68 37 -132 75 -64 37 -121 68 -127 68 -6 0 -11 5 -11 10
0 6 -4 10 -9 10 -5 0 -38 17 -72 38 -35 21 -84 49 -109 63 -25 13 -47 26 -50
29 -3 3 -26 16 -52 30 -26 13 -46 25 -45 27 9 9 281 163 288 163 5 0 9 4 9 8
0 4 12 13 28 19 15 7 50 26 77 43 28 17 59 35 70 41 11 5 29 15 40 22 11 7 47
27 80 46 33 19 93 54 132 78 40 23 76 43 80 43 3 0 14 6 22 14 9 7 41 27 71
43 101 56 225 127 230 133 3 3 34 20 70 39 36 19 76 43 89 53 13 10 30 18 37
18 8 0 14 4 14 9 0 5 8 11 18 14 9 3 44 22 77 41 33 20 68 39 78 42 9 4 17 10
17 15 0 5 6 9 14 9 8 0 21 6 28 13 7 7 28 19 46 26 17 7 32 17 32 22 0 5 9 9
20 9 11 0 20 5 20 10 0 16 15 12 40 -10z m-4238 -192 c7 -7 31 -23 53 -34 22
-12 60 -32 85 -45 25 -13 47 -27 48 -31 2 -5 10 -8 18 -8 8 0 14 -4 14 -8 0
-4 12 -13 28 -19 15 -7 34 -17 42 -22 63 -41 170 -99 170 -93 0 4 4 2 8 -4 7
-11 127 -82 342 -202 25 -14 62 -36 82 -49 21 -12 42 -23 48 -23 5 0 10 -4 10
-10 0 -5 4 -10 9 -10 8 0 126 -65 181 -100 8 -5 42 -24 75 -43 33 -18 100 -57
148 -85 49 -29 93 -52 98 -52 5 0 9 -4 9 -10 0 -5 4 -10 9 -10 6 0 41 -19 78
-41 l69 -41 -1 -952 c0 -929 0 -951 -19 -948 -10 2 -25 10 -33 18 -8 8 -25 17
-39 20 -13 3 -24 10 -24 14 0 4 -8 10 -17 14 -10 3 -25 10 -33 16 -13 9 -51
30 -160 93 -19 11 -48 28 -65 38 -16 10 -43 25 -60 34 -16 8 -43 23 -60 33
-16 11 -133 79 -260 152 -126 73 -243 140 -260 150 -16 9 -75 43 -130 75 -55
32 -120 69 -145 83 -54 30 -108 62 -135 80 -11 7 -28 15 -37 18 -10 4 -18 10
-18 15 0 5 -6 9 -12 9 -17 0 -68 46 -99 90 -26 36 -41 75 -45 120 -1 14 -3 27
-4 30 -6 14 -4 87 3 103 4 9 4 17 0 17 -10 0 -8 134 2 149 3 6 3 11 -2 11 -10
0 -8 134 2 149 3 6 3 11 -2 11 -10 0 -8 134 2 149 3 6 3 11 -2 11 -10 0 -8
134 2 149 3 6 3 11 -2 11 -10 0 -8 134 2 149 3 6 3 11 -2 11 -10 0 -8 134 2
149 3 6 3 11 -2 11 -10 0 -8 134 2 149 3 6 2 11 -3 11 -9 0 -7 83 3 100 3 5 2
10 -2 10 -5 0 -7 35 -5 78 3 91 3 86 0 140 -2 23 1 42 5 42 5 0 5 5 1 12 -8
12 -13 107 -6 121 5 11 19 9 34 -5z m6202 -2245 c-1 -521 -2 -951 -3 -955 0
-5 -7 -8 -14 -8 -7 0 -36 -15 -64 -34 -28 -19 -54 -32 -56 -30 -2 3 -10 -2
-17 -11 -7 -8 -17 -15 -22 -15 -5 0 -34 -16 -64 -35 -30 -19 -57 -35 -60 -35
-3 0 -29 -15 -59 -34 -29 -19 -56 -32 -59 -29 -3 4 -6 1 -6 -5 0 -7 -4 -12 -9
-12 -12 0 -155 -83 -159 -92 -2 -5 -8 -8 -13 -8 -4 0 -42 -20 -83 -44 -41 -24
-84 -47 -95 -51 -12 -3 -21 -10 -21 -14 0 -5 -15 -15 -32 -22 -18 -7 -63 -32
-100 -55 -36 -24 -69 -40 -72 -37 -3 4 -6 1 -6 -5 0 -7 -7 -12 -15 -12 -8 0
-15 -4 -15 -10 0 -5 -4 -10 -10 -10 -9 0 -239 -129 -250 -140 -3 -3 -14 -10
-25 -16 -64 -34 -301 -169 -305 -174 -12 -12 -51 -30 -58 -26 -4 3 -8 432 -7
955 l0 950 184 106 c102 58 188 105 193 105 4 0 8 5 8 10 0 6 6 10 14 10 7 0
19 7 26 15 6 8 15 14 18 12 4 -1 18 6 32 15 58 37 273 158 281 158 5 0 9 5 9
11 0 5 5 7 10 4 6 -3 10 -2 10 3 0 5 8 12 18 16 9 3 35 17 57 30 22 14 47 29
55 33 22 12 162 92 180 103 67 42 191 110 199 110 6 0 11 4 11 10 0 5 11 12
25 16 14 3 25 10 25 15 0 5 7 9 15 9 8 0 15 5 15 11 0 6 6 9 14 6 8 -3 20 0
26 8 7 8 60 41 118 74 59 33 116 67 127 75 11 8 22 11 25 6 3 -5 4 -435 4
-957z m-3944 938 c3 -3 25 -17 50 -30 25 -13 53 -31 63 -39 9 -8 17 -12 17 -8
0 4 12 -2 26 -13 15 -12 33 -21 40 -21 8 0 14 -4 14 -10 0 -5 5 -10 10 -10 6
0 27 -11 48 -23 20 -13 57 -35 82 -49 67 -37 109 -62 168 -97 29 -17 55 -31
57 -31 3 0 196 -111 225 -130 8 -6 26 -15 40 -21 13 -5 27 -13 30 -17 3 -4 16
-13 30 -19 14 -7 43 -24 65 -37 22 -14 63 -37 90 -52 28 -14 62 -35 77 -45 14
-11 29 -19 33 -19 3 0 45 -23 93 -52 48 -28 112 -65 142 -81 30 -17 58 -35 62
-41 4 -6 8 -8 8 -3 0 4 17 -4 38 -17 20 -14 62 -38 92 -55 l55 -30 1 -962 c0
-529 -2 -957 -4 -951 -2 7 -12 12 -23 12 -10 0 -19 5 -19 10 0 6 -4 10 -10 10
-5 0 -82 43 -171 95 -89 52 -168 95 -175 95 -8 0 -14 5 -14 10 0 6 -11 15 -25
20 -14 5 -50 26 -80 45 -31 19 -57 35 -60 35 -2 0 -37 19 -77 43 -40 24 -80
46 -88 50 -8 4 -28 15 -45 26 -16 10 -47 28 -67 40 -21 11 -55 31 -75 43 -21
12 -54 31 -75 42 -240 137 -400 231 -404 237 -3 5 -14 9 -25 9 -10 0 -19 4
-19 10 0 5 -19 18 -42 29 -24 11 -65 34 -93 51 -27 17 -60 35 -72 40 -11 5
-25 15 -29 22 -5 7 -9 439 -9 960 0 944 0 948 20 942 11 -4 22 -9 25 -13z"/>
</g>
</svg>
